
<svg width="24" height="24" viewBox="0 0 24 16" fill="none" xmlns="http://www.w3.org/2000/svg">
  <path d="M16.5225 0.299805C15.0586 0.299805 13.6938 0.739005 12.5381 1.48567H11.9686H5.05168H4.48216V2.636H5.05168H11.1512C9.96703 3.88542 9.19529 5.54321 9.06067 7.38189H4.80601H4.23425V8.54108H4.80601H9.06291C9.11598 9.25572 9.26591 9.93967 9.49842 10.5868H7.35881H6.78705V11.746H7.35881H9.66369H10.0233C10.3352 12.3039 10.7129 12.819 11.1467 13.2781H5.05168H4.48216V14.4373H5.05168H11.9686H12.5448C13.6991 15.183 15.0613 15.6233 16.5225 15.6233C20.6474 15.6233 24 12.1809 24 7.95815C24 3.73539 20.6474 0.299805 16.5225 0.299805ZM16.5225 1.45885C20.0366 1.45885 22.8699 4.36065 22.8699 7.95815C22.8699 11.5556 20.0366 14.4641 16.5225 14.4641C13.0085 14.4641 10.1662 11.5556 10.1662 7.95815C10.1662 4.36065 13.0085 1.45885 16.5225 1.45885Z" fill="white"/>
  <path d="M15.9465 3.25685V3.83311V4.51879H13.9677V8.52783H17.923V10.2653H14.5416H13.9677V11.4022H14.5416H15.9465V12.0855V12.6618H17.0944V12.0855V11.4022H19.0732V7.3798H15.1156V5.65552H18.4993H19.0732V4.51879H18.4993H17.0944V3.83311V3.25685H15.9465Z" fill="white"/>
  <path d="M6.78796 4.17674V5.33524H7.35804H9.66387H10.2254V4.17674H9.66387H7.35804H6.78796Z" fill="white"/>
  <path d="M1.60608 4.17674V5.33524H2.16765H4.47347H5.03504V4.17674H4.47347H2.16765H1.60608Z" fill="white"/>
  <path d="M-0.121094 7.38226V8.54076H0.440473H1.87843H2.43999V7.38226H1.87843H0.440473H-0.121094Z" fill="white"/>
  <path d="M1.60608 10.5876V11.7461H2.16765H4.47347H5.03504V10.5876H4.47347H2.16765H1.60608Z" fill="white"/>
  </svg>
  