<svg viewBox="0 0 218 174" fill="none" xmlns="http://www.w3.org/2000/svg">
                     
  <g clip-path="url(#clip0_202_2)">
     <path className="animFolder" data-set="SVGanim" fill-rule="evenodd" clip-rule="evenodd"
        d="M87.2 0H21.8C9.81 0 0 9.7875 0 21.75V152.25C0 164.212 9.81 174 21.8 174H196.2C208.19 174 218 164.212 218 152.25V43.5C218 31.5375 208.19 21.75 196.2 21.75H109L87.2 0Z"
        fill="white" />
     
     <g filter="url(#filter0_d_202_2)">
        <path className="animText" data-set="SVGanim" stroke-dasharray="854" stroke-dashoffset="0"
           d="M48.3578 116H36.2172L23.7016 91.8594H23.4906C23.5687 92.5938 23.6391 93.4766 23.7016 94.5078C23.7641 95.5391 23.8187 96.5938 23.8656 97.6719C23.9125 98.7344 23.9359 99.6953 23.9359 100.555V116H15.7328V81.7344H27.8266L40.2953 105.547H40.4359C40.3891 104.797 40.3422 103.93 40.2953 102.945C40.2484 101.945 40.2016 100.938 40.1547 99.9219C40.1234 98.9062 40.1078 98.0078 40.1078 97.2266V81.7344H48.3578V116ZM83.3078 116H62.9641V81.7344H83.3078V89.1641H72.2219V94.5547H82.4875V101.984H72.2219V108.453H83.3078V116ZM127.375 116H116.664L109.984 105.289L103.375 116H92.8984L104.266 98.4688L93.5781 81.7344H103.844L110.031 92.3281L115.984 81.7344H126.555L115.703 99.1953L127.375 116ZM167.575 81.7344V102.359C167.575 105.234 167.028 107.734 165.934 109.859C164.841 111.969 163.2 113.602 161.012 114.758C158.825 115.898 156.083 116.469 152.786 116.469C148.067 116.469 144.466 115.258 141.981 112.836C139.497 110.414 138.255 106.992 138.255 102.57V81.7344H147.559V101.844C147.559 104.266 148.012 106.023 148.919 107.117C149.825 108.211 151.161 108.758 152.927 108.758C154.192 108.758 155.223 108.523 156.02 108.055C156.817 107.57 157.395 106.812 157.755 105.781C158.13 104.75 158.317 103.422 158.317 101.797V81.7344H167.575ZM204.377 105.594C204.377 107.453 203.908 109.219 202.97 110.891C202.033 112.547 200.572 113.891 198.587 114.922C196.619 115.953 194.072 116.469 190.947 116.469C189.384 116.469 188.009 116.398 186.822 116.258C185.65 116.117 184.556 115.891 183.541 115.578C182.525 115.25 181.47 114.828 180.377 114.312V106.062C182.236 107 184.111 107.719 186.002 108.219C187.892 108.703 189.603 108.945 191.134 108.945C192.056 108.945 192.806 108.836 193.384 108.617C193.978 108.398 194.416 108.102 194.697 107.727C194.978 107.336 195.119 106.891 195.119 106.391C195.119 105.797 194.908 105.297 194.486 104.891C194.08 104.469 193.423 104.031 192.517 103.578C191.611 103.125 190.416 102.562 188.931 101.891C187.666 101.297 186.517 100.688 185.486 100.062C184.47 99.4375 183.595 98.7266 182.861 97.9297C182.142 97.1172 181.587 96.1719 181.197 95.0938C180.806 94.0156 180.611 92.7422 180.611 91.2734C180.611 89.0703 181.15 87.2266 182.228 85.7422C183.322 84.2422 184.837 83.1172 186.775 82.3672C188.728 81.6172 190.978 81.2422 193.525 81.2422C195.759 81.2422 197.767 81.4922 199.548 81.9922C201.345 82.4922 202.955 83.0625 204.377 83.7031L201.541 90.8516C200.072 90.1797 198.627 89.6484 197.205 89.2578C195.783 88.8516 194.462 88.6484 193.244 88.6484C192.447 88.6484 191.791 88.75 191.275 88.9531C190.775 89.1406 190.4 89.3984 190.15 89.7266C189.916 90.0547 189.798 90.4297 189.798 90.8516C189.798 91.3828 190.002 91.8594 190.408 92.2812C190.83 92.7031 191.525 93.1641 192.494 93.6641C193.478 94.1484 194.814 94.7812 196.502 95.5625C198.173 96.3125 199.595 97.125 200.767 98C201.939 98.8594 202.83 99.8984 203.439 101.117C204.064 102.32 204.377 103.812 204.377 105.594Z"
           stroke="black" />
     </g>
  </g>
 
</svg>